<svg xmlns="http://www.w3.org/2000/svg" width="45" height="39" viewBox="0 0 45 39">
    <g fill="none" fill-rule="evenodd" stroke-linecap="round" stroke-linejoin="round">
        <path stroke="#404F54" stroke-width="1.5" d="M15.382 17H2.432c-.58 0-1.05.504-1.05 1.126 0 .621.423 1.062 1.05 1.125l12.95.749M33.757 17.25h4.813l-5.886-6.49a1.033 1.033 0 0 1 1.459-1.458l8.837 8.35A1.375 1.375 0 0 1 42.007 20L35.132 20M32.382 20l-.681 17c0 .553-.459 1-1.023 1a1.011 1.011 0 0 1-1.023-1V23.333h-8.864c-1.883 0-3.409-1.492-3.409-3.333v-2.038c0-1.275.552-2.259 1.364-3.026l9.163-8.643a1.04 1.04 0 0 1 1.447 0 .986.986 0 0 1 0 1.414l-8.565 8.96h8.182c1.883 0 3.41 1.492 3.41 3.333M17.382 11.5c0 1.933-.773 3.5-2.5 3.5-1.726 0-2.5-1.567-2.5-3.5s.774-3.5 2.5-3.5c1.727 0 2.5 1.567 2.5 3.5z"/>
        <g stroke="#FF1C52" stroke-width="2">
            <path d="M36.8 1v5.455M34 2.364l5.6 2.727M39.6 2.364L34 5.09M21.8 27v5.455M19 28.364l5.6 2.727M24.6 28.364L19 31.09M19.5 1v5"/>
            <g>
                <path d="M17 2l5 3M22 2l-5 3"/>
            </g>
        </g>
    </g>
</svg>
