<svg xmlns="http://www.w3.org/2000/svg" width="11" height="15" viewBox="0 0 11 15">
    <path fill="#FF1C52" fill-rule="evenodd" d="M5.086-.007a5.091 5.091 0 0 1 5.087 5.085c0 .92-.248 1.82-.718 2.605l-3.934 6.568a.425.425 0 0 1-.724.005L.759 7.753A5.073 5.073 0 0 1 0 5.078 5.092 5.092 0 0 1 5.086-.007zm0 .842A4.253 4.253 0 0 0 .842 5.078c0 .79.224 1.56.638 2.227l3.67 5.914 3.578-5.971c.39-.653.6-1.404.6-2.17A4.25 4.25 0 0 0 5.086.835zm0 1.7A2.546 2.546 0 0 1 7.63 5.078 2.538 2.538 0 0 1 5.086 7.62a2.54 2.54 0 0 1-2.543-2.542 2.546 2.546 0 0 1 2.543-2.543zm0 .842c-.935 0-1.7.766-1.7 1.701a1.699 1.699 0 1 0 3.4 0c-.001-.935-.765-1.7-1.7-1.7z"/>
</svg>
