<svg xmlns="http://www.w3.org/2000/svg" width="45" height="45" viewBox="0 0 45 45">
    <g fill="#FFF" fill-rule="nonzero">
        <path d="M22 19.8a3.855 3.855 0 0 0 3.85-3.85A3.855 3.855 0 0 0 22 12.1a3.855 3.855 0 0 0-3.85 3.85A3.855 3.855 0 0 0 22 19.8zm0-6.6a2.753 2.753 0 0 1 2.75 2.75A2.753 2.753 0 0 1 22 18.7a2.753 2.753 0 0 1-2.75-2.75A2.753 2.753 0 0 1 22 13.2z"/>
        <path d="M21.903 35.616L30.34 23.43c3.165-4.219 2.707-11.154-.98-14.84a10.477 10.477 0 0 0-7.457-3.09 10.479 10.479 0 0 0-7.458 3.09c-3.687 3.685-4.145 10.62-.993 14.823l8.45 12.203zm-6.68-26.249a9.387 9.387 0 0 1 6.68-2.767c2.523 0 4.895.983 6.68 2.767 3.327 3.327 3.737 9.59.865 13.42l-7.545 10.897-7.558-10.914c-2.86-3.813-2.45-10.076.877-13.403z"/>
        <path d="M28.664 29.154a.55.55 0 0 0-.129 1.092c5.784.681 8.865 2.516 8.865 3.579 0 1.493-5.859 3.575-15.4 3.575S6.6 35.318 6.6 33.825c0-1.063 3.08-2.898 8.864-3.579a.55.55 0 0 0-.128-1.092c-5.791.682-9.836 2.602-9.836 4.671 0 2.323 5.668 4.675 16.5 4.675s16.5-2.352 16.5-4.675c0-2.069-4.045-3.99-9.836-4.671z"/>
    </g>
</svg>
