<svg xmlns="http://www.w3.org/2000/svg" width="42" height="34" viewBox="0 0 42 34">
    <g fill="none" fill-rule="evenodd">
        <path fill="#404F54" fill-rule="nonzero" d="M10.495 2.464A14.224 14.224 0 0 0 6.81 4.227C3.485 6.472 1.5 9.957 1.5 15.032v16.529c0 .414.336.75.75.75H16.8a.75.75 0 0 0 .75-.75V16.786a.75.75 0 0 0-.75-.75H8.159l-.225-.285a6.597 6.597 0 0 1-.732-1.235c-.737-1.567-.974-3.292-.41-4.996.449-1.822 1.623-3.187 3.27-4.152a10.39 10.39 0 0 1 2.436-1.023l-.92-2.175c-.33.074-.694.171-1.083.294zM16.8 14.536a2.25 2.25 0 0 1 2.25 2.25V31.56a2.25 2.25 0 0 1-2.25 2.25H2.25A2.25 2.25 0 0 1 0 31.56V15.032c0-5.59 2.246-9.533 5.971-12.048a15.708 15.708 0 0 1 4.073-1.95C10.88.768 11.539.63 11.932.576L12.5.5l2.103 4.971-.954.145a8.653 8.653 0 0 0-.867.208 8.912 8.912 0 0 0-1.962.839c-1.324.775-2.23 1.828-2.588 3.271-.445 1.35-.26 2.696.327 3.944.115.244.236.464.358.658H16.8zM33.088 2.464a14.224 14.224 0 0 0-3.684 1.763c-3.326 2.245-5.311 5.73-5.311 10.805v16.529c0 .414.336.75.75.75h14.55a.75.75 0 0 0 .75-.75V16.786a.75.75 0 0 0-.75-.75h-8.641l-.225-.285a6.597 6.597 0 0 1-.732-1.235c-.737-1.567-.974-3.292-.41-4.996.449-1.822 1.623-3.187 3.27-4.152a10.39 10.39 0 0 1 2.436-1.023l-.92-2.175c-.33.074-.694.171-1.083.294zm6.305 12.072a2.25 2.25 0 0 1 2.25 2.25V31.56a2.25 2.25 0 0 1-2.25 2.25h-14.55a2.25 2.25 0 0 1-2.25-2.25V15.032c0-5.59 2.246-9.533 5.971-12.048a15.708 15.708 0 0 1 4.073-1.95c.837-.265 1.495-.404 1.888-.457L35.092.5l2.104 4.971-.954.145a8.653 8.653 0 0 0-.867.208 8.912 8.912 0 0 0-1.962.839c-1.324.775-2.23 1.828-2.588 3.271-.445 1.35-.26 2.696.327 3.944.115.244.236.464.358.658h7.883z"/>
        <path fill="#FF1C52" d="M11.868 19.2a.75.75 0 1 1 0-1.5h4.642v3.037a.75.75 0 1 1-1.5 0v-1.538h-3.142zM34.368 19.2a.75.75 0 1 1 0-1.5h4.642v3.037a.75.75 0 1 1-1.5 0v-1.538h-3.142z"/>
    </g>
</svg>
