<svg xmlns="http://www.w3.org/2000/svg" width="38" height="42" viewBox="0 0 38 42">
    <g fill="none" fill-rule="evenodd">
        <path fill="#404F54" fill-rule="nonzero" d="M19 6.75c-7.03 0-12.75 5.72-12.75 12.75a12.72 12.72 0 0 0 8.25 11.925v6.825c0 .415.335.75.75.75H16v1.5c0 .415.335.75.75.75h4.5a.75.75 0 0 0 .75-.75V39h.75a.75.75 0 0 0 .75-.75v-6.825A12.72 12.72 0 0 0 31.75 19.5c0-7.03-5.72-12.75-12.75-12.75zm3.516 23.431a.75.75 0 0 0-.516.713v1.356h-6v-1.356a.75.75 0 0 0-.516-.712A11.225 11.225 0 0 1 7.75 19.5c0-6.203 5.047-11.25 11.25-11.25s11.25 5.047 11.25 11.25c0 4.867-3.109 9.16-7.734 10.681z"/>
        <path fill="#FF0068" d="M21.25 37.5a.75.75 0 0 0-.75.75v1.5h-3v-1.5a.75.75 0 0 0-.75-.75H16v-3.75h6v3.75h-.75z"/>
        <path fill="#404F54" fill-rule="nonzero" d="M19 5.25a.75.75 0 0 0 .75-.75v-3a.75.75 0 1 0-1.5 0v3c0 .415.335.75.75.75zM37 18.75h-3a.75.75 0 1 0 0 1.5h3a.75.75 0 1 0 0-1.5zM4 18.75H1a.75.75 0 1 0 0 1.5h3a.75.75 0 1 0 0-1.5zM31.198 6.242l-2.121 2.12a.75.75 0 1 0 1.06 1.061l2.121-2.121a.75.75 0 1 0-1.06-1.06zM7.862 29.577l-2.12 2.121a.75.75 0 1 0 1.06 1.06l2.121-2.12a.75.75 0 1 0-1.06-1.061zM30.137 29.577a.75.75 0 1 0-1.06 1.06l2.121 2.121a.748.748 0 0 0 1.06 0 .75.75 0 0 0 0-1.06l-2.12-2.121zM7.862 9.423a.748.748 0 0 0 1.061 0 .75.75 0 0 0 0-1.06L6.802 6.242a.75.75 0 1 0-1.06 1.06l2.12 2.121zM19 10.5c-4.963 0-9 4.037-9 9a.75.75 0 1 0 1.5 0c0-4.136 3.364-7.5 7.5-7.5a.75.75 0 1 0 0-1.5z"/>
    </g>
</svg>
