<svg xmlns="http://www.w3.org/2000/svg" xmlns:xlink="http://www.w3.org/1999/xlink" width="42" height="33" viewBox="0 0 42 33">
    <defs>
        <path id="a" d="M0 0h5.25v5.25H0z"/>
    </defs>
    <g fill="none" fill-rule="evenodd">
        <path fill="#FF1C52" d="M2.063 7.094a1.313 1.313 0 1 1 2.625 0 1.313 1.313 0 0 1-2.625 0m3.937 0A2.625 2.625 0 1 0 3.375 9.72 2.628 2.628 0 0 0 6 7.094"/>
        <g transform="translate(16.5 26.969)">
            <mask id="b" fill="#fff">
                <use xlink:href="#a"/>
            </mask>
            <path fill="#FF1C52" d="M2.625 3.938a1.313 1.313 0 1 1 1.313-1.313 1.314 1.314 0 0 1-1.313 1.313m0-3.938a2.625 2.625 0 1 0 0 5.25 2.625 2.625 0 0 0 0-5.25" mask="url(#b)"/>
        </g>
        <path fill="#404F54" d="M17.625 14.781a1.312 1.312 0 1 1 0 2.625 1.312 1.312 0 0 1 0-2.625m0 3.938a2.625 2.625 0 1 0 0-5.25 2.625 2.625 0 0 0 0 5.25M28.125 23.406a1.313 1.313 0 1 1 1.313-1.313v.001a1.314 1.314 0 0 1-1.313 1.312m0-3.937a2.625 2.625 0 1 0 0 5.25 2.625 2.625 0 0 0 0-5.25"/>
        <path fill="#FF1C52" d="M36.375 28.656a1.313 1.313 0 1 1 1.313-1.313v.001a1.314 1.314 0 0 1-1.313 1.312m0-3.937a2.625 2.625 0 1 0 0 5.25 2.625 2.625 0 0 0 0-5.25"/>
        <path fill="#404F54" d="M5.625 26.406a1.313 1.313 0 1 1 1.313-1.313v.001a1.314 1.314 0 0 1-1.313 1.312m0-3.937a2.625 2.625 0 1 0 0 5.25 2.625 2.625 0 0 0 0-5.25M39.375 12.906a1.313 1.313 0 1 1 1.313-1.313v.001a1.314 1.314 0 0 1-1.313 1.312m0-3.937a2.625 2.625 0 1 0 0 5.25 2.625 2.625 0 0 0 0-5.25"/>
        <path fill="#FF1C52" d="M31.875 2.031a1.312 1.312 0 1 1 0 2.625 1.312 1.312 0 0 1 0-2.625m0 3.938a2.625 2.625 0 1 0 0-5.25 2.625 2.625 0 0 0 0 5.25"/>
        <path fill="#404F54" d="M30.75 25.009l2.293 1.21a3.54 3.54 0 0 1 .707-1.036l-2.302-1.214c-.164.378-.4.73-.698 1.04M36.105 23.691l-1.347-6.805 1.992-1.737c-.329-.273-.61-.6-.832-.966l-1.446 1.26-1.579-7.974a3.782 3.782 0 0 1-1.248.249l1.72 8.69L30 19.34c.343.256.641.568.882.922l2.769-2.413 1.212 6.119a3.773 3.773 0 0 1 1.242-.278M24.033 23.969l-2.283 2.09c.3.257.556.564.759.91l2.241-2.053a3.626 3.626 0 0 1-.717-.947M21.09 13.469l8.16-7.259a3.903 3.903 0 0 1-.806-.991l-8.194 7.289c.33.27.613.594.84.96M24.063 20.969c.168-.433.4-.831.687-1.179l-3.818-2.571a4.286 4.286 0 0 1-.682 1.181l3.813 2.569zM14.25 13.067L6.696 8.219A4.043 4.043 0 0 1 6 9.337l7.608 4.882c.151-.42.368-.809.642-1.152M13.691 19.66l1.54-1.284a3.836 3.836 0 0 1-.808-.989l-1.494 1.246-6.617-8.914c-.31.297-.67.541-1.062.722l6.692 9.015-3.062 2.553c.313.297.572.643.766 1.023l3.058-2.55 4.258 5.737A3.89 3.89 0 0 1 18 25.464l-4.309-5.804z"/>
    </g>
</svg>
