<svg xmlns="http://www.w3.org/2000/svg" width="45" height="45" viewBox="0 0 45 45">
    <g fill="#FFF" fill-rule="nonzero">
        <path d="M36.85 7.7H33V6.05a.55.55 0 0 0-.55-.55H28.6a.55.55 0 0 0-.55.55V7.7h-12.1V6.05a.55.55 0 0 0-.55-.55h-3.85a.55.55 0 0 0-.55.55V7.7H7.15a.55.55 0 0 0-.55.55v29.7c0 .304.246.55.55.55h29.7a.55.55 0 0 0 .55-.55V8.25a.55.55 0 0 0-.55-.55zm-7.7-1.1h2.75v3.3h-2.75V6.6zm-17.05 0h2.75v3.3H12.1V6.6zM7.7 8.8H11v1.65c0 .304.246.55.55.55h3.85a.55.55 0 0 0 .55-.55V8.8h12.1v1.65c0 .304.246.55.55.55h3.85a.55.55 0 0 0 .55-.55V8.8h3.3v4.95H7.7V8.8zm0 28.6V14.85h28.6V37.4H7.7z"/>
        <path d="M26.4 18.15H11.55V34.1h20.9V18.15H26.4zm-3.85 1.1h3.85v3.85h-3.85v-3.85zm3.85 8.8h-3.85V24.2h3.85v3.85zm-8.8-3.85h3.85v3.85H17.6V24.2zm0-4.95h3.85v3.85H17.6v-3.85zm-4.95 0h3.85v3.85h-3.85v-3.85zm0 4.95h3.85v3.85h-3.85V24.2zM16.5 33h-3.85v-3.85h3.85V33zm4.95 0H17.6v-3.85h3.85V33zm4.95 0h-3.85v-3.85h3.85V33zm4.95 0H27.5v-3.85h3.85V33zm0-4.95H27.5V24.2h3.85v3.85zm0-8.8v3.85H27.5v-3.85h3.85z"/>
    </g>
</svg>
